<?xml version="1.0" encoding="iso-8859-1"?>
<!-- Generator: Adobe Illustrator 19.0.0, SVG Export Plug-In . SVG Version: 6.00 Build 0)  -->
<svg version="1.1" id="Capa_1" xmlns="http://www.w3.org/2000/svg" xmlns:xlink="http://www.w3.org/1999/xlink" x="0px" y="0px"
	 viewBox="0 0 512 512" style="enable-background:new 0 0 512 512;" xml:space="preserve">
<path style="fill:#FFE3DD;" d="M391.376,320.603c39.666-32.336,65.005-81.578,65.005-136.745
	c0-97.392-78.952-176.343-176.343-176.343S103.694,86.466,103.694,183.858c0,2.687,0.07,5.357,0.189,8.016h-0.189v24.047
	L55.6,312.108l48.094,16.031v88.172h112.219l16.031,88.172h205.4l-45.088-184.359L391.376,320.603z"/>
<path style="fill:#FF97A4;" d="M280.501,119.733c-72.14-80.156-136.265,0-104.203,64.125s104.203,88.172,104.203,88.172
	s72.141-24.047,104.203-88.172S352.642,39.577,280.501,119.733z"/>
<path style="fill:#FF7D8D;" d="M207.433,175.842c-17.097-34.194-6.841-72.944,17.393-89.516
	c-44.382-4.03-71.807,50.975-48.528,97.532C208.36,247.983,280.5,272.03,280.5,272.03s9.929-3.312,24.052-10.747
	C285.601,253.395,233.387,227.752,207.433,175.842z"/>
<path d="M400.61,322.651c40.292-35.002,63.285-85.257,63.285-138.793C463.895,82.478,381.418,0,280.037,0
	C178.658,0,96.179,82.478,96.179,183.858c0,8.948,0,17.897,0,26.845c0,1.147,0,2.295,0,3.443l-47.3,94.6
	c-2.017,4.033,0.076,9.068,4.344,10.49l42.956,14.318v82.756c0,4.151,3.365,7.515,7.515,7.515h105.947l14.909,82.002
	c0.742,4.084,4.656,6.799,8.738,6.049c4.083-0.742,6.791-4.655,6.049-8.738l-16.031-88.172c-0.649-3.573-3.761-6.17-7.393-6.17
	H111.208v-80.657c0-3.235-2.07-6.107-5.138-7.129l-39.874-13.292l44.218-88.437c0.522-1.044,0.794-2.194,0.794-3.361V193.55
	c0.366-1.597,0.142-3.247,0.075-4.863c-0.067-1.608-0.075-3.219-0.075-4.828c0-93.092,75.736-168.829,168.829-168.829
	s168.829,75.736,168.829,168.829c0,50.958-22.685,98.676-62.238,130.92c-3.324,2.711-3.674,7.835-0.732,10.965l44.149,180.525
	c0.84,3.432,3.911,5.731,7.293,5.731c0.591,0,1.191-0.07,1.791-0.217c4.031-0.986,6.5-5.053,5.514-9.085L400.61,322.651z"/>
<path d="M371.48,88.086c-13.088-8.92-28.535-11.624-44.67-7.824c-15.659,3.69-31.21,13.274-46.31,28.523
	c-15.099-15.249-30.651-24.832-46.309-28.523c-16.136-3.802-31.583-1.096-44.67,7.824c-29.072,19.813-37.832,63.357-19.944,99.133
	c33.074,66.149,105.481,90.917,108.547,91.94c1.534,0.511,3.219,0.511,4.753,0c1.387-0.462,34.322-11.632,66.166-38.845
	c3.155-2.696,3.528-7.44,0.832-10.595c-2.697-3.155-7.44-3.528-10.595-0.832c-24.809,21.2-50.901,32.131-58.774,35.139
	c-12.449-4.776-70.446-29.45-97.487-83.531c-7.299-14.598-9.491-31.1-6.171-46.461c3.081-14.254,10.785-26.476,21.137-33.53
	c21.384-14.576,50.143-5.509,76.931,24.255c2.94,3.267,8.23,3.267,11.17,0c26.786-29.763,55.545-38.832,76.93-24.255
	c10.352,7.055,18.056,19.277,21.138,33.53c3.319,15.362,1.128,31.863-6.171,46.461c-3.943,7.885-8.761,15.57-14.323,22.843
	c-2.521,3.296-1.892,8.013,1.405,10.535c3.297,2.523,8.014,1.892,10.535-1.405c6.136-8.025,11.46-16.519,15.826-25.25
	C409.312,151.443,400.552,107.898,371.48,88.086z"/>
<g>
</g>
<g>
</g>
<g>
</g>
<g>
</g>
<g>
</g>
<g>
</g>
<g>
</g>
<g>
</g>
<g>
</g>
<g>
</g>
<g>
</g>
<g>
</g>
<g>
</g>
<g>
</g>
<g>
</g>
</svg>
